<?xml version="1.0" standalone="no"?>
<!DOCTYPE svg PUBLIC "-//W3C//DTD SVG 20010904//EN"
 "http://www.w3.org/TR/2001/REC-SVG-20010904/DTD/svg10.dtd">
<svg version="1.0" xmlns="http://www.w3.org/2000/svg"
 width="666.000000pt" height="375.000000pt" viewBox="0 0 666.000000 375.000000"
 preserveAspectRatio="xMidYMid meet">
<metadata>
Created by potrace 1.16, written by Peter Selinger 2001-2019
</metadata>
<g transform="translate(0.000000,375.000000) scale(0.100000,-0.100000)"
fill="#000000" stroke="none">
<path d="M1934 2546 l-90 -43 -32 -77 c-52 -123 -52 -125 8 -170 28 -21 56
-46 63 -55 7 -9 31 -29 55 -44 23 -15 42 -30 42 -32 0 -5 -207 -105 -217 -105
-3 0 -34 -13 -69 -30 -70 -32 -68 -30 -134 -195 -17 -44 -34 -85 -36 -91 -3
-5 30 -39 72 -75 103 -87 127 -107 288 -248 76 -66 144 -121 150 -121 6 0 53
22 105 48 91 46 94 48 116 102 12 30 29 71 38 91 19 43 24 37 -111 149 -81 67
-107 94 -84 88 4 -1 30 8 57 21 28 13 75 34 105 48 30 14 87 40 125 59 l70 35
49 125 c42 107 47 127 35 138 -89 83 -491 421 -503 423 -6 1 -52 -18 -102 -41z
m135 -43 c20 -15 90 -75 157 -133 67 -58 151 -129 188 -159 36 -30 63 -58 59
-61 -5 -3 -80 -39 -168 -80 -88 -40 -196 -90 -240 -110 -44 -21 -132 -61 -195
-90 -63 -29 -148 -68 -188 -87 -41 -19 -76 -33 -78 -30 -3 3 9 41 26 85 l30
79 108 50 c59 28 189 88 290 134 l184 84 -34 30 c-19 16 -93 80 -166 140 -72
61 -130 114 -129 119 2 6 101 54 116 56 2 0 20 -12 40 -27z m-59 -173 c58 -51
115 -99 128 -107 12 -8 22 -19 22 -23 0 -4 -27 -19 -60 -34 -69 -31 -46 -41
-188 78 -45 38 -82 71 -82 74 0 3 10 31 21 63 18 48 24 57 38 49 9 -5 63 -50
121 -100z m429 -323 l-32 -74 -191 -88 c-105 -49 -235 -109 -290 -134 l-98
-45 43 -40 c24 -23 66 -59 93 -81 76 -62 196 -167 196 -172 0 -5 -107 -53
-118 -53 -10 0 -82 61 -329 275 -62 53 -113 99 -113 102 0 2 26 16 58 29 31
14 93 43 137 64 44 21 161 75 260 120 99 45 232 106 295 135 63 30 116 50 118
45 2 -4 -11 -42 -29 -83z m-360 -334 c25 -20 74 -61 108 -90 l61 -54 -22 -56
c-12 -31 -26 -58 -31 -60 -6 -1 -26 12 -46 30 -20 17 -84 72 -143 122 l-106
90 58 26 c31 15 61 28 66 28 5 1 30 -16 55 -36z"/>
</g>
</svg>
