<svg id="logosandtypes_com" data-name="logosandtypes com" xmlns="http://www.w3.org/2000/svg" viewBox="0 0 150 150"><defs><style>.cls-1{fill:none;}.cls-2{fill:#00fad7;}.cls-3{fill:#1d1d1b;}</style></defs><path class="cls-1" d="M0,0H150V150H0Z" transform="translate(0 0)"/><path class="cls-2" d="M91.44,48,57.87,19.54,51.25,36,74.58,55.74Z" transform="translate(0 0)"/><path class="cls-2" d="M74.49,136.89l16.94-7.76L57.64,100.47,113.16,74.9l9.15-22.58L27.09,96.12Z" transform="translate(0 0)"/><path class="cls-3" d="M124.72,51.72,74.92,9.45,56.3,18.05,48.84,36.6l22,18.63L34.71,71.77l-10,24.93,49.46,42.55L93,130.62l7.43-18.47-22.21-19,36.51-16.81ZM53.66,35.4l5-12.53,29,24.64L74.91,53.37ZM37.84,74.76,95.15,48.54,61.58,20.05l12.7-5.87L118.6,51.81,30.85,92.17Zm57.77,38.57-5,12.46L61.35,101l12.84-5.91ZM53.93,100l33.79,28.65-12.9,5.91-44-37.89,87.76-40.37L111.6,73.4Z" transform="translate(0 0)"/></svg>